# xmcd
#
# Track frame offsets:
#	183
#	9783
#	21533
#	31870
#	42608
#	56395
#	69508
#	86808
#	98158
#	106383
#	117495
#	127795
#	142058
#	154458
#	169620
#	180033
#
# Disc length: 2536
#
# Revision: 1
# Processed by: cddbd v1.5.1PL0 Copyright (c) Steve Scherf et al.
# Submitted via: CDex 1.40Beta9
# Normalized: r0:TDELIM( - )
#
DISCID=ce09e610
DTITLE=Various Artist - The Country Classics Collection [CD1)
DYEAR=1900
DGENRE=Country
TTITLE0=Ned Miller - From a jack to a king
TTITLE1=Frankie Laine - Strange lady in town
TTITLE2=Johnny Cash - There you go
TTITLE3=Billy Jo Spears - I'm so lonesome i could cry
TTITLE4=Willie Nelson - Home is where you're happy
TTITLE5=Kenny Rogers - Ruby don't take your love to town
TTITLE6=Johnny Paycheck - Billy Jack Washburn
TTITLE7=Donna Forgo - Wishful thinking
TTITLE8=Johnny Cash - Guess things happen that way
TTITLE9=Faron Young - Country girl
TTITLE10=Waylon Jennings - White lightning
TTITLE11=B J Thomas - I'd rather be lonely
TTITLE12=Charlie Rich - My heart cries for you
TTITLE13=Barbara Fairchild - Slippin' away
TTITLE14=Conway Twitty - Born to sing
TTITLE15=Dave Dudley - Seven lonely days
EXTD=ID3G: 2
EXTT0=
EXTT1=
EXTT2=
EXTT3=
EXTT4=
EXTT5=
EXTT6=
EXTT7=
EXTT8=
EXTT9=
EXTT10=
EXTT11=
EXTT12=
EXTT13=
EXTT14=
EXTT15=
PLAYORDER=
